# xmcd
#
# Track frame offsets: 
#        150
#        13930
#        23192
#        51405
#        63015
#        82852
#        107687
#        132047
#        161037
#        176260
#        196825
#        205415
#        223552
#        236607
#        263315
#        278412
#        301380
#        313775
#
# Disc length: 4667 seconds
#
# Revision: 2
# Processed by: cddbd v1.4PL0 Copyright (c) Steve Scherf et al.
# Submitted via: ExactAudioCopy v0.90b4
#
DISCID=e9123912
DTITLE=Johnny Costa - Classic Costa
DYEAR=1991
DGENRE=Jazz
TTITLE0=Holiday For Strings
TTITLE1=Get Happy
TTITLE2=My Funny Valentine
TTITLE3=Debbie
TTITLE4=You Came A Long Way From St. Louis
TTITLE5=Just One Of Those Things
TTITLE6=The Man I Love
TTITLE7=How High the Moon
TTITLE8=It Never Entered My Mind
TTITLE9=At the Darktown Strutters' Ball
TTITLE10=They're Not Writing
TTITLE11=What Is This Thing Called Love?
TTITLE12=Stumbling
TTITLE13=Stella by Starlight
TTITLE14=Cherokee
TTITLE15=Do Nothing 'Till You Hear From Me
TTITLE16=Fascinating Rhythm
TTITLE17=Jazzspeak
EXTD=
EXTT0=
EXTT1=
EXTT2=
EXTT3=
EXTT4=
EXTT5=
EXTT6=
EXTT7=
EXTT8=
EXTT9=
EXTT10=
EXTT11=
EXTT12=
EXTT13=
EXTT14=
EXTT15=
EXTT16=
EXTT17=
PLAYORDER=
